<svg xmlns="http://www.w3.org/2000/svg" viewBox="0 0 512 512" width="512" height="512">
  <!-- Dark green background with rounded corners for maskable -->
  <rect width="512" height="512" fill="#060f08"/>
  <!-- Leaf centered and scaled up — original 80x80 scaled to ~320x320, centered at 256,256 -->
  <g transform="translate(96, 96) scale(4)">
    <path d="M40 72 C16 56, 8 28, 24 8 C30 0, 50 0, 56 8 C72 28, 64 56, 40 72Z" fill="#1D9E75"/>
    <path d="M40 68 L40 12" fill="none" stroke="#0F6E56" stroke-width="2" stroke-linecap="round"/>
    <path d="M40 52 L26 40" fill="none" stroke="#0F6E56" stroke-width="1.2" stroke-linecap="round"/>
    <path d="M40 38 L28 28" fill="none" stroke="#0F6E56" stroke-width="1.2" stroke-linecap="round"/>
    <path d="M40 26 L32 20" fill="none" stroke="#0F6E56" stroke-width="1" stroke-linecap="round"/>
    <path d="M40 52 L54 40" fill="none" stroke="#0F6E56" stroke-width="1.2" stroke-linecap="round"/>
    <path d="M40 38 L52 28" fill="none" stroke="#0F6E56" stroke-width="1.2" stroke-linecap="round"/>
    <path d="M40 26 L48 20" fill="none" stroke="#0F6E56" stroke-width="1" stroke-linecap="round"/>
    <path d="M4 22 L4 4 L22 4" fill="none" stroke="#2EBF8E" stroke-width="3" stroke-linecap="round" stroke-linejoin="round"/>
    <path d="M76 22 L76 4 L58 4" fill="none" stroke="#2EBF8E" stroke-width="3" stroke-linecap="round" stroke-linejoin="round"/>
    <path d="M4 58 L4 76 L22 76" fill="none" stroke="#2EBF8E" stroke-width="3" stroke-linecap="round" stroke-linejoin="round"/>
    <path d="M76 58 L76 76 L58 76" fill="none" stroke="#2EBF8E" stroke-width="3" stroke-linecap="round" stroke-linejoin="round"/>
  </g>
</svg>